<svg id="Capa_1" enable-background="new 0 0 512 512" height="512" viewBox="0 0 512 512" width="512" xmlns="http://www.w3.org/2000/svg"><path d="m23.086 239.004c25.939-41.244 70.789-77.459 119.037-86.665 12.469-2.379 24.505 5.8 26.884 18.269 2.063 10.811-3.812 21.298-13.539 25.445l-1.039.438c-42.472 18.132-73.998 71.558-72.679 104.407.906 22.56-16.649 41.583-39.209 42.488-26.599 1.068-47.085-23.186-41.666-49.212 3.762-18.075 9.589-35.031 22.211-55.17z" fill="#4e5660"/><path d="m488.914 239.004c-25.939-41.244-70.789-77.459-119.037-86.665-12.469-2.379-24.505 5.8-26.884 18.269-2.063 10.811 3.812 21.298 13.539 25.445l1.039.438c42.472 18.132 73.998 71.558 72.679 104.407-.906 22.56 16.649 41.583 39.209 42.488 26.599 1.068 47.085-23.186 41.666-49.212-3.763-18.075-9.589-35.031-22.211-55.17z" fill="#4e5660"/><path d="m157.202 338.826-26.745 58.869c-4.147 9.128-.165 19.882 8.913 24.136 34.687 16.258 74.881 24.984 116.63 24.984 41.75 0 81.943-8.726 116.63-24.984 9.078-4.255 13.059-15.009 8.913-24.136l-26.745-58.87h-197.596z" fill="#8daee1"/><path d="m139.37 421.832c32.55 15.256 69.949 23.879 108.933 24.884-13.228-19.077-11.969-49.249.682-68.16v-39.73h-91.782l-26.745 58.869c-4.147 9.128-.166 19.882 8.912 24.137z" fill="#6a95d6"/><path d="m77.509 276.14c0-48.94 38.382-72.432 58.286-81.324 6.936-3.099 12.92-7.925 17.576-13.928 10.827-13.959 38.882-38.386 102.629-38.386s91.802 24.428 102.629 38.386c4.656 6.003 10.64 10.83 17.576 13.928 19.904 8.892 58.286 32.383 58.286 81.324 0 70.088-79.913 126.906-178.491 126.906s-178.491-56.817-178.491-126.906z" fill="#f7d3a4"/><path d="m202.978 149.508c-27.678 8.29-42.432 22.131-49.607 31.38-4.656 6.003-10.64 10.83-17.576 13.928-19.904 8.892-58.286 32.383-58.286 81.323 0 70.088 79.913 126.906 178.491 126.906 5.296 0 10.534-.174 15.713-.495-117.91-43.981-99.852-185.787-68.735-253.042z" fill="#f2bd77"/><ellipse cx="149.325" cy="274.583" fill="#fff" rx="38.017" ry="30.275"/><ellipse cx="362.675" cy="274.583" fill="#fff" rx="38.017" ry="30.275"/><path d="m171.482 251.881c-4.142 0-7.5-3.358-7.5-7.5v-13.425c0-4.142 3.358-7.5 7.5-7.5s7.5 3.358 7.5 7.5v13.425c0 4.142-3.358 7.5-7.5 7.5z" fill="#4e5660"/><path d="m340.519 251.881c-4.143 0-7.5-3.358-7.5-7.5v-13.425c0-4.142 3.357-7.5 7.5-7.5s7.5 3.358 7.5 7.5v13.425c0 4.142-3.358 7.5-7.5 7.5z" fill="#4e5660"/><path d="m256 319.439c-8.399 0-16.264-2.257-23.047-6.178v32.855c0 12.728 10.318 23.047 23.047 23.047 12.728 0 23.047-10.318 23.047-23.047v-32.855c-6.783 3.921-14.648 6.178-23.047 6.178z" fill="#e7889d"/><path d="m256 348.712c-4.142 0-7.5-3.358-7.5-7.5v-20.743c0-4.142 3.358-7.5 7.5-7.5 4.143 0 7.5 3.358 7.5 7.5v20.743c0 4.142-3.357 7.5-7.5 7.5z" fill="#e16e7e"/><path d="m256 326.939c-15.512 0-30.265-6.72-40.476-18.436-2.721-3.123-2.396-7.86.727-10.582 3.123-2.721 7.861-2.396 10.582.727 7.361 8.447 17.992 13.292 29.167 13.292s21.806-4.845 29.167-13.292c2.723-3.123 7.458-3.448 10.582-.727 3.122 2.722 3.448 7.459.727 10.582-10.211 11.716-24.964 18.436-40.476 18.436z" fill="#4e5660"/><path d="m272.961 247.478c-11.12-2.911-22.802-2.911-33.922 0-4.605 1.206-8.618 4.039-11.294 7.976-3.615 5.316-1.537 12.608 4.337 15.22l16.295 7.246c4.853 2.158 10.394 2.158 15.247 0l16.295-7.246c5.874-2.612 7.952-9.904 4.337-15.22-2.677-3.937-6.69-6.77-11.295-7.976z" fill="#4e5660"/><ellipse cx="256" cy="475.005" fill="#f6ee86" rx="36.995" ry="36.995" transform="matrix(.974 -.226 .226 .974 -100.797 70.207)"/><path d="m260.318 482.505h-8.637c-4.142 0-7.5-3.358-7.5-7.5s3.358-7.5 7.5-7.5h8.637c4.143 0 7.5 3.358 7.5 7.5s-3.357 7.5-7.5 7.5z" fill="#eed076"/><ellipse cx="410.414" cy="101.586" fill="#e7889d" rx="101.586" ry="101.586" transform="matrix(.707 -.707 .707 .707 48.376 319.961)"/><path d="m410.414 30.496c-39.199 0-71.09 31.891-71.09 71.09s31.891 71.09 71.09 71.09 71.09-31.891 71.09-71.09-31.891-71.09-71.09-71.09zm56.09 71.09c0 12.765-4.295 24.542-11.504 33.979l-78.564-78.565c9.437-7.209 21.213-11.504 33.978-11.504 30.928 0 56.09 25.162 56.09 56.09zm-112.18 0c0-12.766 4.295-24.542 11.504-33.979l78.565 78.565c-9.437 7.21-21.214 11.504-33.979 11.504-30.928 0-56.09-25.162-56.09-56.09z" fill="#fff"/></svg>